<svg xmlns="http://www.w3.org/2000/svg" width="36" height="36">
  <g fill="none" fill-rule="evenodd">
    <circle cx="18" cy="18" r="17" stroke="#4C4B54" stroke-width="2"/>
    <g fill="#4C4B54" transform="translate(13 10)">
      <circle cx="5" cy="16" r="1"/>
      <path d="M5.0688251.00099167C2.02359792.05632751.07364758 2.74217671.00284084 5.14564183c-.00516381.1752805.13274301.32155952.30802351.32672333.0031158.00009179.00623276.00013769.0093499.00011458h1.27793857c.18052365.00002908.32686699-.14631425.32686699-.32683791C1.92501981 3.82247974 3 2.01872368 5.0688251 2.01872368c1.64980855 0 3.38470801 1.04899296 3.23741727 3.45375606C8.12176386 8.48439434 4.33193328 8.34734032 4 12.657582c-.01240231.1610473.10809825.3016559.26914553.3140582.00747163.0005754.01496261.0008635.02245636.0008395H5.6754939c.17550881.0000169.3192419-.1394679.3245061-.3148977.09818212-3.27192558 4.2915535-3.47694477 4.2915535-7.18510226 0-.02294622 0-1.1958787-.2385726-1.99353733C9.386275 1.24983526 7.37716908-.04095401 5.0688251.00099167z"/>
    </g>
  </g>
</svg>