<svg xmlns="http://www.w3.org/2000/svg" width="36" height="36">
  <g fill="none" fill-rule="evenodd">
    <circle cx="18" cy="18" r="17" stroke="#4C4B54" stroke-width="2"/>
    <path fill="#4C4B54" d="M25.499529 22.2303775v2.258104c.001724.42388-.1756913.8288433-.4886598 1.1154016-.3129685.2865583-.732485.428154-1.1554859.390001-2.3207841-.2516727-4.55006072-1.0431353-6.50870522-2.310793-1.82226542-1.1556496-3.36722838-2.69755217-4.52517165-4.5162079-1.27460657-1.96364418-2.06782018-4.19932469-2.3153795-6.52592034-.03810707-.42085613.1027757-.83831926.38823392-1.15041283.28545821-.31209358.68920511-.49007808 1.11261468-.49055003h2.26258583c.75710952-.0073628 1.40242675.54651068 1.50839055 1.29472026.09549848.72264327.27260347 1.43218501.52793669 2.11509067.20720384.55013059.0746767 1.17030471-.33938787 1.58819976l-.957828.95593066c1.07363881 1.88442223 2.63700921 3.44469579 4.52517165 4.51620785l.957828-.95593066c.41872452-.41324436 1.04012952-.54550898 1.59135202-.33871559.6842611.25482744 1.3952112.43158161 2.1192887.52689092.7583907.10677845 1.3162141.76383573 1.2972159 1.52798363z"/>
  </g>
</svg>