<svg xmlns="http://www.w3.org/2000/svg" xmlns:xlink="http://www.w3.org/1999/xlink" viewBox="0 0 691.22 102">
  <defs>
    <mask id="mask" width="5" height="5" x="48.4" y="48.1" maskUnits="userSpaceOnUse">
      <use transform="translate(48.4 48.1)" xlink:href="#image"/>
    </mask>
    <mask id="mask-2" width="5" height="5" x="48.4" y="48.1" maskUnits="userSpaceOnUse">
      <use transform="translate(48.4 48.1)" xlink:href="#image"/>
    </mask>
    <filter id="luminosity-invert" color-interpolation-filters="sRGB" filterUnits="userSpaceOnUse">
      <feColorMatrix values="-1 0 0 0 1 0 -1 0 0 1 0 0 -1 0 1 0 0 0 1 0"/>
    </filter>
    <style>
      .cls-1{fill:#1e2123}.cls-2{fill:none}.cls-7{fill:#a8d1e3}.cls-10{fill:#fff}.cls-12{opacity:.13}.cls-13{fill:#7c7c7c}.cls-14{mask:url(#mask-2)}.cls-18{filter:url(#luminosity-invert)}
    </style>
  </defs>
  <g id="Layer_2" data-name="Layer 2">
    <g id="Layer_1-2" data-name="Layer 1">
      <path d="M122 45.88h8.59L142 77.55l11.78-31.67h8.06l-16.93 41.91h-6.45zM176.05 45.88h6.46l18.05 41.91H192l-3.91-9.59H170l-3.79 9.59h-8.35zm9.48 25.93l-6.46-17.05-6.57 17.05zM221.76 45.88h11.36l11.19 29.36 11.31-29.36h11.25v41.91h-7.11V53h-.11l-12.73 34.79h-5.21L229 53h-.12v34.79h-7.1zM273.74 73.59a15 15 0 011.26-6.13 14.29 14.29 0 013.28-4.71 14.57 14.57 0 014.92-3 17.74 17.74 0 0112.08 0 14.53 14.53 0 014.91 3 14.31 14.31 0 013.29 4.71 16.11 16.11 0 010 12.25 14.31 14.31 0 01-3.29 4.71 14.53 14.53 0 01-4.91 3 17.74 17.74 0 01-12.08 0 14.57 14.57 0 01-4.92-3 14.29 14.29 0 01-3.28-4.71 15 15 0 01-1.26-6.12zm7.1 0a9.31 9.31 0 00.56 3.19 8.11 8.11 0 001.66 2.73 8.23 8.23 0 002.63 1.89 8.43 8.43 0 009.63-1.89 8.08 8.08 0 001.68-2.73 9.39 9.39 0 000-6.39 8.08 8.08 0 00-1.65-2.73 8.43 8.43 0 00-2.64-1.89 8.4 8.4 0 00-9.62 1.89 8.11 8.11 0 00-1.66 2.73 9.37 9.37 0 00-.59 3.2zM310.68 59.38h7.1v4.5h.12a8.93 8.93 0 013.37-3.88 9.33 9.33 0 015-1.36 7.69 7.69 0 011.27.11c.41.08.84.18 1.27.3V66q-.89-.24-1.74-.39a11 11 0 00-1.69-.14 7.11 7.11 0 00-6.31 3 7.08 7.08 0 00-1.06 2.37 8.8 8.8 0 00-.27 1.78v15.17h-7.1zM329.8 65.42v-6h5.86v-8.27h7.1v8.23h7.82v6h-7.82v12.47a6.2 6.2 0 00.8 3.37c.54.83 1.59 1.25 3.17 1.25a11.34 11.34 0 002.07-.21 4.51 4.51 0 001.78-.68v6a9.38 9.38 0 01-2.75.74 24.78 24.78 0 01-2.88.2 14.34 14.34 0 01-4.64-.62 6 6 0 01-2.84-1.9 7.17 7.17 0 01-1.47-3.18 22.68 22.68 0 01-.38-4.38v-13zM384.8 59.38v25.87a23.84 23.84 0 01-.95 7 13.42 13.42 0 01-2.93 5.27 13.23 13.23 0 01-5 3.35 19.62 19.62 0 01-7.17 1.18 27.41 27.41 0 01-7.51-1 17.06 17.06 0 01-6.58-3.67l4.27-5.81a17.14 17.14 0 004.44 3 12.57 12.57 0 005.32 1.07 11.55 11.55 0 004.3-.71 7 7 0 002.78-2 7.44 7.44 0 001.48-3 15.48 15.48 0 00.44-3.87V84h-.12a9.23 9.23 0 01-4.08 3.11 13.72 13.72 0 01-5.21 1 14.14 14.14 0 01-5.8-1.16 13.82 13.82 0 01-4.47-3.1 13.54 13.54 0 01-2.87-4.62 16 16 0 01-1-5.68 17.8 17.8 0 01.95-5.87 13.57 13.57 0 012.77-4.68 13.17 13.17 0 014.41-3.17 14.26 14.26 0 015.89-1.15 13.46 13.46 0 015.63 1.18 9.17 9.17 0 014.14 3.79h.12v-4.27zm-15.16 5.68a9.15 9.15 0 00-3.43.62 7.89 7.89 0 00-2.64 1.72 7.71 7.71 0 00-1.71 2.66 9.24 9.24 0 00-.62 3.47 8.12 8.12 0 002.36 5.8 8.19 8.19 0 002.67 1.77 8.29 8.29 0 003.31.66 8.94 8.94 0 003.52-.66 8 8 0 002.67-1.74 7.53 7.53 0 001.69-2.64 9.22 9.22 0 00.59-3.31 8.28 8.28 0 00-2.25-6 8.2 8.2 0 00-6.16-2.35zM410 83.89h-.18a9.15 9.15 0 01-3.91 3.52 12.25 12.25 0 01-5.21 1.09 13.71 13.71 0 01-3.8-.5 10.28 10.28 0 01-3.31-1.6 8.2 8.2 0 01-2.34-2.66 7.59 7.59 0 01-.89-3.73 8.65 8.65 0 01.83-3.94 8.06 8.06 0 012.22-2.72 11.37 11.37 0 013.23-1.75 21.59 21.59 0 013.82-1 33.31 33.31 0 014-.42c1.34-.06 2.61-.09 3.79-.09H410v-.77a4.61 4.61 0 00-1.84-4 7.73 7.73 0 00-4.65-1.32 11 11 0 00-4.21.8 10.83 10.83 0 00-3.37 2.2l-3.73-3.73a13.85 13.85 0 015.53-3.49 20.37 20.37 0 016.54-1.06 16.36 16.36 0 015.1.68 11.14 11.14 0 013.43 1.74 7.63 7.63 0 012.1 2.46 11.82 11.82 0 011.1 2.76 16.17 16.17 0 01.38 2.76c0 .88.06 1.66.06 2.33v16.34H410zm-.42-8.82h-1.48c-1 0-2.09 0-3.31.11a17.23 17.23 0 00-3.47.57 7.88 7.88 0 00-2.75 1.3 2.84 2.84 0 00-1.12 2.4 3 3 0 00.44 1.68 4.1 4.1 0 001.15 1.16 5.09 5.09 0 001.6.68 7.79 7.79 0 001.78.21c2.45 0 4.25-.59 5.42-1.75a6.45 6.45 0 001.74-4.77zM452.7 59.38v25.87a23.84 23.84 0 01-.95 7 13.42 13.42 0 01-2.93 5.27 13.23 13.23 0 01-5 3.35 19.56 19.56 0 01-7.16 1.18 27.49 27.49 0 01-7.52-1 17 17 0 01-6.57-3.67l4.26-5.81a17.14 17.14 0 004.44 3 12.58 12.58 0 005.33 1.07 11.53 11.53 0 004.29-.71 7 7 0 002.78-2 7.31 7.31 0 001.48-3 15.46 15.46 0 00.45-3.87V84h-.12a9.32 9.32 0 01-4.09 3.11 13.72 13.72 0 01-5.21 1 14.17 14.17 0 01-5.8-1.16 13.41 13.41 0 01-7.38-7.68 16 16 0 01-1-5.68 17.8 17.8 0 011-5.87 13.57 13.57 0 012.76-4.72 13.37 13.37 0 014.41-3.17 14.28 14.28 0 015.9-1.15 13.42 13.42 0 015.62 1.18 9.07 9.07 0 014.14 3.79h.17v-4.27zm-15.16 5.68a9.19 9.19 0 00-3.43.62 7.85 7.85 0 00-2.63 1.72 7.73 7.73 0 00-1.72 2.66 9.44 9.44 0 00-.62 3.47 8.21 8.21 0 00.62 3.19 8 8 0 001.75 2.61 8.15 8.15 0 002.66 1.77 8.34 8.34 0 003.32.66 9 9 0 003.51-.66 8.08 8.08 0 002.66-1.74 7.53 7.53 0 001.69-2.64 9.22 9.22 0 00.59-3.31 8.28 8.28 0 00-2.25-6 8.2 8.2 0 00-6.15-2.35zM465.84 76.07a7.22 7.22 0 002.49 5 7.76 7.76 0 005.15 1.78 8.46 8.46 0 004.52-1.12 12.43 12.43 0 003.12-2.73l5.09 3.85a14.44 14.44 0 01-5.57 4.38 16.34 16.34 0 01-6.45 1.3 17.1 17.1 0 01-6-1.06 14.53 14.53 0 01-4.91-3 14.31 14.31 0 01-3.28-4.76 16.11 16.11 0 010-12.25 14.31 14.31 0 013.29-4.71 14.53 14.53 0 014.91-3 17.1 17.1 0 016-1.06 13.85 13.85 0 015.42 1 11.57 11.57 0 014.2 3 13.8 13.8 0 012.72 4.83 20.19 20.19 0 011 6.6v1.95zm14.57-5.33a6.66 6.66 0 00-2-4.94 7.34 7.34 0 00-5.23-1.8 6.93 6.93 0 00-5.06 1.84 8.22 8.22 0 00-2.28 4.91zM539.9 55.71a12.46 12.46 0 00-4.47-3.32 12.12 12.12 0 00-4.35-.83 14.53 14.53 0 00-5.89 1.16 13.63 13.63 0 00-4.53 3.19 14.51 14.51 0 00-2.93 4.77 16.38 16.38 0 00-1 5.86 18.08 18.08 0 001 6.22 14.65 14.65 0 002.93 4.91 13.82 13.82 0 004.53 3.26 14.21 14.21 0 005.89 1.18A10.83 10.83 0 00536 80.9a13.75 13.75 0 004.5-3.9l6.15 4.38a16.75 16.75 0 01-6.92 5.68 21.54 21.54 0 01-8.73 1.8 24.46 24.46 0 01-8.91-1.57A20 20 0 01510.54 76a23.15 23.15 0 01-1.66-9 24.15 24.15 0 011.66-9.14 19.9 19.9 0 0111.57-11.49 24.67 24.67 0 018.89-1.56 20.6 20.6 0 017.91 1.51 18.68 18.68 0 016.78 5.12zM556.12 76.07a7.22 7.22 0 002.49 5 7.76 7.76 0 005.15 1.78 8.46 8.46 0 004.47-1.09A12.27 12.27 0 00571.4 79l5.09 3.85a14.49 14.49 0 01-5.56 4.38 16.42 16.42 0 01-6.46 1.3 17.1 17.1 0 01-6-1.06 14.53 14.53 0 01-4.91-3 14.31 14.31 0 01-3.29-4.71 16.11 16.11 0 010-12.25 14.31 14.31 0 013.29-4.71 14.53 14.53 0 014.91-3 17.1 17.1 0 016-1.06 13.81 13.81 0 015.42 1 11.57 11.57 0 014.2 3 13.82 13.82 0 012.73 4.83 20.47 20.47 0 011 6.6v1.95zm14.57-5.33a6.69 6.69 0 00-2-4.94 7.36 7.36 0 00-5.22-1.8 7 7 0 00-5.07 1.84 8.22 8.22 0 00-2.28 4.91zM583.83 59.38h6.75v4.56h.12a9.86 9.86 0 013.08-3.7 9.06 9.06 0 015.62-1.57 11.19 11.19 0 014.83.94 9.07 9.07 0 013.22 2.49 9.51 9.51 0 011.78 3.55 16.63 16.63 0 01.53 4.21v17.93h-7.1V73.41q0-1.18-.12-2.64a9.72 9.72 0 00-.62-2.72 5.12 5.12 0 00-1.57-2.13 4.51 4.51 0 00-2.9-.86 6.84 6.84 0 00-3 .59 5.78 5.78 0 00-2 1.6 6.29 6.29 0 00-1.16 2.31 10.2 10.2 0 00-.35 2.72v15.51h-7.11zM613.91 65.42v-6h5.86v-8.27h7.1v8.23h7.82v6h-7.82v12.47a6.2 6.2 0 00.8 3.37c.53.83 1.59 1.25 3.17 1.25a11.34 11.34 0 002.07-.21 4.51 4.51 0 001.78-.68v6a9.45 9.45 0 01-2.76.74 24.48 24.48 0 01-2.87.2 14.45 14.45 0 01-4.65-.62 6.09 6.09 0 01-2.84-1.9 7.27 7.27 0 01-1.42-3.17 21.91 21.91 0 01-.38-4.38v-13zM645.34 76.07a7.22 7.22 0 002.49 5 7.76 7.76 0 005.17 1.75 8.51 8.51 0 004.47-1.09 12.43 12.43 0 003.15-2.73l5.09 3.85a14.51 14.51 0 01-5.57 4.38 16.34 16.34 0 01-6.45 1.3 17.06 17.06 0 01-6-1.06 14.53 14.53 0 01-4.91-3 14.17 14.17 0 01-3.29-4.71 16.11 16.11 0 010-12.25 14.17 14.17 0 013.29-4.71 14.53 14.53 0 014.91-3 17.06 17.06 0 016-1.06 13.85 13.85 0 015.42 1 11.74 11.74 0 014.2 3 13.8 13.8 0 012.69 4.78 20.46 20.46 0 011 6.6v1.95zm14.57-5.33a6.7 6.7 0 00-2-4.94 7.34 7.34 0 00-5.23-1.8 6.91 6.91 0 00-5.06 1.84 8.22 8.22 0 00-2.28 4.91zM673.05 59.38h7.1v4.5h.12a8.88 8.88 0 013.38-3.88 9.29 9.29 0 015-1.36 7.59 7.59 0 011.27.11c.42.08.84.18 1.27.3V66q-.88-.24-1.74-.39a11 11 0 00-1.69-.14 7.11 7.11 0 00-6.31 3 7.08 7.08 0 00-1.06 2.37 8.8 8.8 0 00-.27 1.78v15.17h-7.1z" class="cls-1"/>
      <path d="M0 51zM73.65 60.4l24.46 10.15v-.06L73.65 60.37zM59.9 29.57L70.55 3.89h-.06L59.87 29.55zM73.47 41.71l24.67-10.2v-.06L73.46 41.68l.01.03zM51 102zM87 14.88l.11.11zM14.88 15l.11-.11zM102 51zM51 0zM42.14 29.56L31.51 3.86h-.06l10.66 25.72zM87 87.15l.18-.18zM40.66 75.93l-9.21 22.18h.06l9.19-22.18zM61.28 75.87l9.21 22.27h.06l-9.23-22.27zM28.36 60.36L3.87 70.49a.14.14 0 000 .06L28.36 60.4zM28.52 41.67L3.89 31.45v.06L28.5 41.7z" class="cls-2"/>
      <path fill="#6eb3d1" d="M50 22.69a1.59 1.59 0 012.1 0l7.82 6.86L70.49 3.86A50.89 50.89 0 0051.1 0h-.19a50.9 50.9 0 00-19.4 3.86l10.63 25.7z"/>
      <path fill="#9acadf" d="M73.6 42.31l.05 18.06 24.49 10.12A50.84 50.84 0 00102 51a50.84 50.84 0 00-3.86-19.47L73.47 41.71a1.74 1.74 0 01.13.6z"/>
      <path fill="#a2cee1" d="M28.31 42.44a1.6 1.6 0 01.19-.74L3.86 31.51A50.84 50.84 0 000 51a50.66 50.66 0 003.87 19.49l24.49-10.13z"/>
      <path fill="#92c6dd" d="M40.7 75.93l-9.19 22.21A50.89 50.89 0 0050.9 102h.2a50.85 50.85 0 0019.39-3.86l-9.21-22.27z"/>
      <path d="M28.85 41.24l13.26-11.66L31.45 3.89A51 51 0 0015 14.88l-.11.11a51.16 51.16 0 00-11 16.46l24.63 10.22a1.54 1.54 0 01.33-.43z" class="cls-7"/>
      <path fill="#8bc2da" d="M73.05 41.11a1.63 1.63 0 01.41.57l24.65-10.23A51.16 51.16 0 0087.12 15l-.12-.12a51 51 0 00-16.46-11L59.9 29.57z"/>
      <path fill="#75b7d3" d="M30 76a1.6 1.6 0 01-1.6-1.59v-14L3.89 70.55a51.18 51.18 0 0027.56 27.56l9.21-22.18z"/>
      <path d="M98.11 70.55L73.65 60.4v13.84a1.6 1.6 0 01-1.59 1.6H61.28l9.23 22.24A50.9 50.9 0 0087 87.15l.18-.18a51.06 51.06 0 0010.93-16.42z" class="cls-7"/>
      <path d="M51 51z" class="cls-10"/>
      <g class="cls-12" mask="url(#mask)">
        <path d="M51 51z" class="cls-13"/>
      </g>
      <path d="M51 51z" class="cls-10"/>
      <g class="cls-14">
        <g class="cls-12">
          <path d="M51 51z" class="cls-13"/>
        </g>
      </g>
      <path d="M51 51z" class="cls-10"/>
      <g class="cls-14">
        <g class="cls-12">
          <path d="M51 51z" class="cls-13"/>
        </g>
      </g>
      <path d="M51 51z" class="cls-10"/>
      <g class="cls-14">
        <g class="cls-12">
          <path d="M51 51z" class="cls-13"/>
        </g>
      </g>
      <path d="M51 51z" class="cls-10"/>
      <g class="cls-14">
        <g class="cls-12">
          <path d="M51 51z" class="cls-13"/>
        </g>
      </g>
      <path d="M51 51z" class="cls-10"/>
      <g class="cls-14">
        <g class="cls-12">
          <path d="M51 51z" class="cls-13"/>
        </g>
      </g>
      <path d="M50.98 51.01L51 51l-.02.01z" class="cls-10"/>
      <g class="cls-14">
        <g class="cls-12">
          <path d="M50.98 51.01L51 51l-.02.01z" class="cls-13"/>
        </g>
      </g>
      <path d="M51 51l-.41 1 .41-.99V51z" class="cls-10"/>
      <g class="cls-12" mask="url(#mask-8)">
        <path d="M51 51l-.41 1 .41-.99V51z" class="cls-13"/>
      </g>
      <path d="M51 51z" class="cls-10"/>
      <g class="cls-14">
        <g class="cls-12">
          <path d="M51 51z" class="cls-13"/>
        </g>
      </g>
      <path d="M51 51z" class="cls-10"/>
      <g class="cls-14">
        <g class="cls-12">
          <path d="M51 51z" class="cls-13"/>
        </g>
      </g>
      <path d="M51 51z" class="cls-10"/>
      <g class="cls-14">
        <g class="cls-12">
          <path d="M51 51z" class="cls-13"/>
        </g>
      </g>
      <path d="M51 51l1.01.42L51 51z" class="cls-10"/>
      <g class="cls-12" mask="url(#mask-12)">
        <path d="M51 51l1.01.42L51 51z" class="cls-13"/>
      </g>
      <path d="M51 51z" class="cls-10"/>
      <g class="cls-14">
        <g class="cls-12">
          <path d="M51 51z" class="cls-13"/>
        </g>
      </g>
      <path d="M51 51v.01l.83 1.98L51 51z" class="cls-10"/>
      <g class="cls-12" mask="url(#mask-14)">
        <path d="M51 51v.01l.83 1.98L51 51z" class="cls-13"/>
      </g>
      <path d="M51 51z" class="cls-10"/>
      <g class="cls-14">
        <g class="cls-12">
          <path d="M51 51z" class="cls-13"/>
        </g>
      </g>
      <path d="M51 51z" class="cls-10"/>
      <g class="cls-14">
        <g class="cls-12">
          <path d="M51 51z" class="cls-13"/>
        </g>
      </g>
      <path d="M51 51z" class="cls-10"/>
      <g class="cls-14">
        <g class="cls-12">
          <path d="M51 51z" class="cls-13"/>
        </g>
      </g>
      <path d="M51 51z" class="cls-10"/>
      <g class="cls-14">
        <g class="cls-12">
          <path d="M51 51z" class="cls-13"/>
        </g>
      </g>
      <path d="M51 51z" class="cls-10"/>
      <g class="cls-14">
        <g class="cls-12">
          <path d="M51 51z" class="cls-13"/>
        </g>
      </g>
      <path d="M51 51z" class="cls-10"/>
      <g class="cls-14">
        <g class="cls-12">
          <path d="M51 51z" class="cls-13"/>
        </g>
      </g>
      <path d="M51 51z" class="cls-10"/>
      <g class="cls-14">
        <g class="cls-12">
          <path d="M51 51z" class="cls-13"/>
        </g>
      </g>
      <rect x="51" y="51" class="cls-10" transform="rotate(-23.2 50.986 51.005)"/>
      <g class="cls-14">
        <g class="cls-12">
          <rect x="51" y="51" class="cls-13" transform="rotate(-23.2 50.986 51.005)"/>
        </g>
      </g>
      <path d="M51 51z" class="cls-10"/>
      <g class="cls-14">
        <g class="cls-12">
          <path d="M51 51z" class="cls-13"/>
        </g>
      </g>
      <path d="M51 51z" class="cls-10"/>
      <g class="cls-14">
        <g class="cls-12">
          <path d="M51 51z" class="cls-13"/>
        </g>
      </g>
      <path d="M51 51v.01V51z" class="cls-10"/>
      <g class="cls-14">
        <g class="cls-12">
          <path d="M51 51v.01V51z" class="cls-13"/>
        </g>
      </g>
      <path d="M51 51z" class="cls-10"/>
      <g class="cls-14">
        <g class="cls-12">
          <path d="M51 51z" class="cls-13"/>
        </g>
      </g>
    </g>
  </g>
</svg>